<?xml version="1.0" standalone="no"?>
<!DOCTYPE svg PUBLIC "-//W3C//DTD SVG 20010904//EN"
 "http://www.w3.org/TR/2001/REC-SVG-20010904/DTD/svg10.dtd">
<svg version="1.0" xmlns="http://www.w3.org/2000/svg"
 width="300.000000pt" height="300.000000pt" viewBox="0 0 300.000000 300.000000"
 preserveAspectRatio="xMidYMid meet">
<metadata>
Created by potrace 1.10, written by Peter Selinger 2001-2011
</metadata>
<g transform="translate(0.000000,300.000000) scale(0.100000,-0.100000)"
fill="#000000" stroke="none">
<path d="M1300 2254 c-36 -14 -68 -28 -72 -32 -3 -4 -2 -31 3 -60 l10 -53 -57
-51 c-58 -53 -83 -60 -146 -42 -14 4 -23 -8 -42 -49 -41 -93 -41 -90 9 -127
l45 -34 0 -77 0 -78 -45 -32 c-25 -18 -45 -34 -45 -35 0 -6 54 -130 59 -136 3
-3 29 -2 57 2 l52 8 56 -54 c30 -29 54 -60 52 -66 -3 -7 -7 -32 -10 -55 -7
-47 -5 -48 106 -88 l36 -14 34 49 c23 34 40 50 56 50 20 0 22 5 22 50 0 46 -2
50 -25 50 -73 0 -216 92 -254 164 -12 22 -12 28 1 43 9 10 18 29 20 43 2 17 9
25 23 25 27 0 34 -44 8 -51 -11 -3 -24 -14 -31 -24 -10 -16 -5 -26 34 -69 47
-52 120 -94 187 -106 l37 -7 0 81 0 81 -28 0 c-34 0 -75 -39 -67 -63 10 -24
-29 -41 -49 -22 -16 17 -11 45 8 45 7 0 27 16 45 34 28 29 39 34 62 29 25 -5
29 -2 29 16 0 19 -6 21 -55 21 -30 0 -55 -4 -55 -10 0 -16 -37 -12 -44 5 -12
34 31 65 49 35 3 -5 28 -10 56 -10 44 0 49 2 49 23 0 22 0 22 -152 19 -87 -2
-158 -8 -165 -14 -15 -12 -43 6 -43 27 0 7 7 18 15 25 12 10 18 10 30 0 11 -9
61 -13 165 -14 137 -1 150 1 150 17 0 15 -11 17 -93 17 -56 0 -98 -5 -104 -11
-17 -17 -43 -3 -43 21 0 24 26 38 43 21 6 -6 48 -11 104 -11 86 0 93 1 93 20
0 19 -7 20 -139 20 -83 0 -142 -4 -146 -10 -10 -16 -45 -12 -52 6 -3 8 2 23
11 32 13 14 20 14 36 4 13 -8 65 -12 155 -12 128 0 135 1 135 20 0 17 -7 20
-46 20 -25 0 -55 -5 -66 -11 -25 -13 -54 10 -45 35 7 18 42 22 52 6 3 -5 28
-10 56 -10 46 0 49 2 49 25 0 21 -5 25 -28 25 -15 0 -33 -5 -38 -10 -15 -15
-44 -1 -44 21 0 25 27 36 51 21 10 -7 28 -12 39 -12 18 0 20 7 20 55 0 48 -3
55 -20 55 -65 0 -210 -89 -210 -130 0 -29 -25 -44 -44 -25 -16 16 -12 45 6 45
6 0 31 18 55 41 52 48 135 89 181 89 l33 0 -3 53 c-2 42 -6 51 -19 49 -10 -1
-31 15 -50 40 -18 24 -35 46 -38 50 -3 3 -35 -5 -71 -18z m74 -51 l25 -26 -47
-23 c-61 -30 -79 -30 -84 1 -6 30 8 51 42 64 36 14 37 14 64 -16z m31 -73 c10
-16 -13 -39 -34 -33 -10 3 -44 -14 -82 -39 -75 -51 -149 -150 -146 -195 2 -22
-3 -29 -21 -31 -33 -5 -38 23 -11 57 13 16 37 50 53 76 32 52 91 105 163 145
54 31 69 35 78 20z m-51 -162 c-4 -7 -17 -26 -29 -43 -12 -16 -24 -38 -28 -48
-9 -23 -35 -33 -50 -18 -9 10 -8 16 7 26 10 8 24 25 30 37 6 13 21 27 34 33
12 5 22 13 22 17 0 5 5 8 11 8 5 0 7 -6 3 -12z m-244 -14 c0 -9 -8 -28 -18
-42 -10 -15 -22 -35 -25 -45 -6 -15 -10 -16 -27 -7 -30 16 -33 33 -16 74 13
32 19 36 50 36 26 0 36 -4 36 -16z m16 -178 c19 -14 19 -15 -5 -40 -30 -32
-39 -33 -36 -3 1 12 3 30 4 40 1 21 11 22 37 3z m-2 -133 c4 -10 1 -20 -8 -25
-30 -17 -38 -46 -21 -77 23 -45 19 -53 -22 -49 -33 3 -39 8 -52 41 -14 37 -14
37 23 73 20 19 36 39 36 44 0 17 38 11 44 -7z m31 -81 c-18 -47 179 -215 230
-196 19 8 32 -23 16 -39 -9 -9 -16 -9 -29 0 -9 7 -36 21 -59 33 -58 29 -129
94 -159 146 -14 24 -30 44 -35 44 -14 0 -11 38 4 43 17 6 39 -14 32 -31z m169
24 l27 -14 -26 -28 -26 -28 -21 22 c-21 21 -21 22 -3 42 22 24 17 23 49 6z
m112 -132 c-8 -20 -23 -17 -29 6 -3 12 1 24 11 29 19 11 28 -8 18 -35z m-97
-140 c28 -14 51 -29 51 -35 0 -5 -9 -18 -19 -28 -17 -17 -26 -18 -53 -10 -37
10 -59 34 -52 55 2 8 6 21 9 29 6 19 4 19 64 -11z"/>
<path d="M1560 2196 l0 -65 53 -11 c45 -9 62 -8 102 5 49 17 73 10 62 -17 -11
-31 -155 -51 -198 -28 -18 10 -19 6 -19 -99 0 -125 -3 -121 93 -121 84 0 157
34 192 89 27 44 34 48 53 29 14 -14 2 -40 -39 -84 l-29 -30 30 -29 c33 -31 38
-53 16 -61 -9 -3 -30 9 -51 31 -25 25 -42 34 -54 30 -47 -19 -131 -28 -170
-18 l-41 11 0 -83 0 -84 31 9 c42 12 58 27 67 64 6 22 15 32 31 34 21 3 23 0
19 -25 -3 -15 -8 -35 -12 -44 -6 -13 1 -18 32 -23 41 -6 56 -23 42 -46 -7 -11
-16 -11 -53 -1 -35 10 -57 10 -101 1 l-56 -11 0 -87 0 -87 51 -12 c60 -15 119
-56 119 -84 0 -23 -32 -26 -51 -3 -18 22 -64 44 -94 44 -25 0 -25 0 -25 -91
l0 -92 43 7 c74 12 166 47 197 76 23 21 30 37 30 65 0 48 -32 104 -76 134 -36
25 -46 61 -16 61 9 -1 30 -11 46 -25 l29 -23 23 49 c22 46 45 62 59 39 4 -6
-5 -34 -19 -63 -23 -47 -24 -56 -14 -99 6 -27 16 -48 23 -48 17 0 72 61 84 93
17 44 13 109 -9 144 -23 38 -51 55 -105 62 -31 5 -40 10 -40 26 0 11 8 21 17
23 34 7 103 -21 136 -54 19 -19 38 -32 43 -29 5 3 13 24 19 45 13 48 1 104
-32 145 -17 22 -21 39 -19 84 2 50 -2 63 -31 106 -35 53 -68 71 -68 38 0 -49
-123 -118 -145 -83 -9 15 13 40 35 40 9 0 29 9 44 21 20 15 26 29 26 58 0 70
-50 109 -181 141 -46 11 -87 20 -91 20 -5 0 -8 -29 -8 -64z m146 -6 c37 -14
19 -31 -38 -37 -49 -6 -82 15 -71 43 6 17 55 14 109 -6z m7 -184 c-4 -28 -1
-36 28 -59 l32 -25 -53 -16 c-104 -31 -124 -21 -121 60 1 32 6 61 11 64 5 3
31 6 59 7 l50 2 -6 -33z m261 -200 c43 -81 34 -107 -25 -73 -29 17 -37 27 -33
41 3 10 -1 35 -11 55 -16 36 -16 39 7 77 l23 39 6 -45 c4 -25 19 -67 33 -94z
m-174 -31 c9 -11 8 -19 -7 -39 -10 -14 -25 -25 -33 -23 -14 2 -32 61 -22 72
11 10 50 5 62 -10z m-170 -14 c0 -10 -7 -24 -15 -31 -13 -10 -15 -9 -15 12 0
14 3 28 7 31 12 13 23 7 23 -12z m226 -126 c15 -12 16 -14 3 -15 -8 0 -26 -11
-39 -25 -24 -25 -45 -32 -54 -17 -6 10 48 72 62 72 4 0 17 -7 28 -15z m-132
-44 c3 -4 -3 -16 -14 -26 -31 -28 -24 -53 30 -112 59 -64 66 -104 26 -142 -29
-27 -47 -10 -21 19 10 12 14 26 10 39 -8 26 -83 91 -105 91 -36 0 -56 27 -54
73 1 25 5 50 8 56 8 13 112 15 120 2z m216 -70 c0 -34 -39 -90 -40 -57 0 31
22 96 31 90 5 -3 9 -18 9 -33z m-280 -201 c14 -11 34 -20 45 -20 17 0 17 -2 5
-14 -19 -18 -84 -36 -98 -27 -9 6 -16 39 -13 69 2 18 33 14 61 -8z"/>
<path d="M353 974 c-2 -5 -2 -68 -1 -139 l3 -130 25 0 c23 0 25 4 26 45 l1 45
62 -2 c61 -2 62 -1 59 24 -3 25 -6 26 -62 27 l-59 1 0 45 0 45 72 0 c69 0 71
1 71 25 0 25 0 25 -96 25 -58 0 -98 -4 -101 -11z"/>
<path d="M701 968 c-112 -58 -104 -209 14 -253 99 -38 195 27 195 132 0 107
-112 172 -209 121z m130 -57 c79 -79 -22 -207 -115 -146 -30 20 -50 67 -42 98
3 13 18 36 32 50 37 38 86 37 125 -2z"/>
<path d="M1002 849 l3 -143 24 0 c22 0 25 4 25 34 1 32 4 35 32 38 26 3 35 -3
57 -37 20 -30 34 -41 52 -41 31 0 31 2 -1 49 l-25 39 25 25 c38 38 36 98 -3
138 -27 26 -36 29 -94 29 -36 0 -73 3 -81 6 -15 6 -16 -9 -14 -137z m146 75
c26 -18 30 -65 6 -88 -9 -10 -33 -16 -60 -16 l-44 0 0 60 0 60 38 0 c21 0 48
-7 60 -16z"/>
<path d="M1316 848 l2 -141 27 -3 28 -3 -5 90 c-3 49 -3 89 1 89 4 0 47 -40
96 -90 49 -49 93 -90 97 -90 5 0 8 66 8 146 l0 145 -27 -3 -26 -3 2 -87 c1
-49 1 -88 -2 -88 -2 0 -46 40 -98 90 -52 49 -96 90 -99 90 -3 0 -4 -64 -4
-142z"/>
<path d="M1672 848 c3 -142 3 -142 26 -142 l24 0 0 139 0 140 -26 3 -27 3 3
-143z"/>
<path d="M1810 984 c0 -3 20 -35 45 -71 l45 -64 -40 -59 c-22 -32 -44 -62 -50
-65 -21 -13 -9 -26 23 -23 27 3 37 11 62 55 17 29 32 52 35 52 3 1 19 -22 35
-51 25 -42 35 -51 63 -54 17 -2 32 -2 32 1 0 3 -23 37 -50 75 l-50 71 45 63
c25 35 45 66 45 70 0 3 -13 6 -29 6 -25 0 -34 -8 -58 -50 -15 -27 -30 -50 -33
-50 -3 0 -18 23 -33 50 -24 42 -33 50 -58 50 -16 0 -29 -3 -29 -6z"/>
<path d="M2381 968 c-22 -57 -94 -215 -107 -235 -7 -12 -10 -24 -6 -27 15 -9
51 6 57 23 4 13 19 16 74 17 62 0 70 -2 75 -20 4 -15 14 -22 36 -23 17 -1 30
1 28 5 -11 21 -51 108 -87 187 -22 49 -45 91 -51 93 -5 2 -14 -7 -19 -20z m46
-131 l19 -53 -48 0 c-27 0 -47 2 -46 5 2 4 11 27 22 54 10 26 22 47 26 47 4 0
16 -24 27 -53z"/>
<path d="M2612 848 l3 -142 25 0 25 0 0 139 0 140 -28 3 -28 3 3 -143z"/>
</g>
</svg>
